<?xml version="1.0" standalone="no"?>
<!DOCTYPE svg PUBLIC "-//W3C//DTD SVG 20010904//EN"
 "http://www.w3.org/TR/2001/REC-SVG-20010904/DTD/svg10.dtd">
<svg version="1.0" xmlns="http://www.w3.org/2000/svg"
 width="823.000000pt" height="823.000000pt" viewBox="0 0 823.000000 823.000000"
 preserveAspectRatio="xMidYMid meet">
<metadata>
Created by potrace 1.14, written by Peter Selinger 2001-2017
</metadata>
<g transform="translate(0.000000,823.000000) scale(0.100000,-0.100000)"
fill="#000000" stroke="none">
<path d="M4289 8216 c-2 -2 -35 -7 -74 -10 -282 -24 -470 -56 -731 -126 -144
-38 -358 -110 -362 -121 -2 -5 -13 -9 -23 -9 -24 0 -122 -41 -127 -52 -2 -4
-11 -8 -20 -8 -18 0 -82 -22 -97 -33 -5 -4 -71 -38 -145 -76 -152 -77 -343
-188 -348 -202 -2 -5 -9 -9 -16 -9 -7 0 -25 -11 -40 -25 -15 -14 -30 -25 -33
-25 -12 0 -170 -111 -208 -146 -21 -19 -40 -34 -43 -34 -6 0 -79 -59 -125
-102 -17 -15 -35 -28 -39 -28 -5 0 -8 -7 -8 -15 0 -8 -6 -15 -14 -15 -7 0 -34
-22 -59 -50 -25 -27 -50 -50 -55 -50 -5 0 -53 -48 -108 -106 -54 -59 -108
-116 -120 -128 -58 -60 -264 -317 -264 -330 0 -3 -10 -17 -21 -30 -12 -14 -27
-33 -33 -44 -6 -11 -35 -55 -64 -98 -30 -43 -67 -103 -84 -134 -16 -30 -42
-77 -58 -105 -25 -43 -107 -206 -155 -310 -35 -75 -75 -175 -75 -187 0 -8 -4
-18 -9 -24 -17 -18 -124 -343 -146 -445 -2 -8 -10 -44 -19 -80 -28 -115 -54
-252 -66 -344 -6 -49 -13 -103 -15 -120 -3 -16 -7 -64 -11 -105 -3 -41 -7 -91
-9 -110 -6 -56 -6 -460 1 -546 3 -44 12 -133 20 -199 21 -167 23 -184 34 -235
5 -25 12 -58 14 -75 10 -60 35 -171 51 -230 9 -33 18 -67 20 -75 13 -60 87
-277 135 -400 46 -117 68 -166 146 -325 30 -60 54 -113 54 -117 0 -5 9 -18 20
-30 11 -12 20 -29 20 -37 0 -8 8 -24 19 -35 10 -12 31 -43 46 -71 15 -27 36
-62 46 -77 11 -14 19 -31 19 -36 0 -6 3 -12 8 -14 4 -2 24 -28 44 -58 21 -30
51 -73 67 -95 17 -22 34 -47 38 -55 3 -8 12 -19 20 -23 7 -4 13 -14 13 -20 0
-7 8 -20 17 -28 10 -9 47 -52 83 -95 36 -43 69 -84 75 -90 157 -171 205 -222
229 -243 17 -14 41 -37 56 -51 183 -178 504 -415 765 -565 106 -61 453 -235
469 -235 5 0 28 -9 50 -19 36 -17 133 -54 146 -57 3 0 16 -5 30 -11 113 -47
531 -151 711 -177 100 -15 295 -35 379 -41 171 -11 552 -5 640 10 14 3 57 7
95 11 133 12 549 92 625 121 8 3 22 7 31 9 9 2 70 22 135 44 66 22 126 42 134
44 44 13 203 77 225 92 14 9 25 14 25 10 0 -3 17 3 37 14 21 11 43 20 50 20 7
0 13 5 13 10 0 6 8 10 19 10 10 0 24 7 31 15 7 9 15 14 17 11 2 -2 45 19 96
46 51 28 102 54 115 59 12 5 22 13 22 19 0 5 4 9 8 8 18 -6 403 251 410 272 2
6 9 10 15 10 7 0 32 18 56 40 24 22 47 40 51 40 5 0 10 3 12 8 2 4 30 30 63
57 99 83 227 206 300 290 54 63 167 255 149 255 -4 0 -2 6 4 13 18 21 60 179
68 253 12 119 8 1869 -5 1951 -6 40 -23 109 -37 155 -28 88 -100 238 -115 238
-5 0 -9 6 -9 13 0 18 -42 69 -127 151 -76 76 -80 79 -132 116 -19 14 -42 31
-51 38 -18 14 -134 68 -190 87 -3 1 -12 5 -20 8 -25 10 -132 35 -185 43 -85
12 -2602 8 -2665 -4 -85 -17 -93 -19 -150 -36 -59 -18 -211 -89 -232 -108 -7
-7 -26 -20 -41 -28 -29 -14 -170 -148 -217 -205 -85 -102 -170 -294 -196 -440
-31 -179 -10 -411 49 -548 8 -17 22 -51 32 -74 10 -24 22 -43 27 -43 5 0 6 -5
3 -10 -3 -5 -3 -10 2 -10 4 0 17 -19 28 -41 10 -23 25 -44 32 -46 7 -3 13 -10
13 -17 0 -13 71 -96 122 -142 143 -130 342 -225 533 -254 57 -9 287 -13 795
-14 l715 -1 1 -98 1 -97 -61 -39 c-348 -219 -774 -332 -1188 -316 -126 5 -289
25 -371 46 -23 6 -60 14 -82 19 -115 25 -370 125 -445 174 -19 12 -43 25 -53
29 -32 12 -207 129 -207 138 0 5 -7 9 -15 9 -7 0 -18 6 -22 13 -4 7 -21 21
-38 31 -34 21 -325 313 -325 326 0 5 -7 16 -16 24 -28 29 -144 207 -150 231
-3 14 -10 25 -15 25 -9 0 -111 207 -124 250 -4 14 -17 52 -30 85 -104 268
-140 700 -86 1020 30 174 101 412 150 502 5 10 21 43 35 73 15 30 42 82 61
115 19 33 40 70 47 83 6 12 15 22 20 22 4 0 8 7 8 15 0 8 4 15 8 15 5 0 15 15
24 33 17 34 53 79 106 132 17 19 32 36 32 40 0 6 86 92 220 219 19 18 43 36
53 39 9 4 17 11 17 17 0 5 7 10 15 10 8 0 15 5 15 10 0 6 6 10 13 10 7 0 26
14 42 30 16 17 35 30 42 30 7 0 13 4 13 8 0 4 28 21 61 37 34 16 67 34 73 41
7 6 57 31 112 55 54 24 101 46 104 49 8 8 75 30 93 30 9 0 17 4 17 9 0 5 15
12 33 16 17 3 41 10 52 15 92 39 455 87 630 84 131 -3 288 -21 400 -45 118
-26 295 -80 295 -91 0 -4 7 -8 16 -8 26 0 224 -90 224 -102 0 -5 9 -8 19 -8
11 0 26 -7 35 -15 8 -8 19 -15 24 -15 5 0 17 -9 27 -20 10 -11 24 -20 32 -20
7 0 13 -4 13 -10 0 -5 11 -12 25 -16 14 -3 25 -9 25 -13 0 -4 16 -15 35 -24
19 -9 35 -21 35 -27 0 -5 6 -10 13 -10 6 0 25 -13 40 -30 16 -16 35 -30 42
-30 8 0 20 -6 27 -12 13 -13 75 -44 131 -66 15 -7 27 -19 27 -29 0 -14 2 -15
9 -4 6 9 15 11 27 6 11 -4 66 -18 123 -30 123 -27 316 -27 416 -1 90 24 198
64 246 91 24 14 56 30 72 36 15 6 27 15 27 20 0 5 6 9 13 9 21 0 187 151 187
170 0 5 9 14 20 20 11 6 20 17 20 25 0 8 7 15 15 15 8 0 15 6 15 14 0 8 6 21
13 28 15 15 49 77 69 126 7 17 16 32 20 32 5 0 8 8 8 18 0 10 4 22 9 28 19 19
59 208 66 310 7 103 -18 277 -51 360 -13 33 -24 66 -24 72 0 13 -20 53 -31 62
-3 3 -9 17 -13 33 -3 15 -11 27 -16 27 -6 0 -10 6 -10 14 0 18 -113 169 -145
195 -14 10 -25 24 -25 29 0 6 -9 13 -20 17 -11 3 -28 17 -39 31 -10 13 -22 24
-26 24 -4 0 -24 14 -45 30 -21 17 -41 30 -45 30 -3 0 -13 7 -22 16 -34 34
-312 211 -415 264 -27 14 -48 28 -48 32 0 5 -5 8 -11 8 -11 0 -95 35 -119 50
-30 19 -142 70 -166 76 -13 3 -24 10 -24 15 0 5 -6 9 -14 9 -7 0 -46 13 -85
30 -106 43 -392 136 -511 165 -57 14 -322 67 -355 71 -22 3 -92 12 -155 21
-106 14 -748 31 -761 19z"/>
</g>
</svg>
